<?xml version="1.0" encoding="UTF-8" standalone="no"?><!-- Generator: Gravit.io --><svg xmlns="http://www.w3.org/2000/svg" xmlns:xlink="http://www.w3.org/1999/xlink" style="isolation:isolate" viewBox="0 0 2000 500" width="2000pt" height="500pt"><defs><clipPath id="_clipPath_Wj5lmBTezoOU91tGeOw9UClnZigiu4Rw"><rect width="2000" height="500"/></clipPath></defs><g clip-path="url(#_clipPath_Wj5lmBTezoOU91tGeOw9UClnZigiu4Rw)"><rect width="2000" height="500" style="fill:rgb(0,0,0)" fill-opacity="0"/><g><g><path d=" M 172.295 406.25 L 169.908 406.15 C 129.17 405.358 96.62 371.995 96.833 331.25 C 96.758 300.591 115.43 273.001 143.92 261.675 L 148.508 259.837 L 147.758 254.95 C 147.165 251.246 146.855 247.501 146.833 243.75 C 146.833 202.388 180.47 168.75 221.833 168.75 C 228.295 168.75 234.895 169.65 241.47 171.438 L 247.77 173.15 L 249.195 166.788 C 258.682 123.974 296.731 93.564 340.583 93.75 C 374.308 93.75 405.583 112.05 422.208 141.5 L 424.283 145.163 L 428.458 144.625 C 432.433 144.1 436.458 143.75 440.583 143.75 C 487.996 143.764 527.929 179.189 533.595 226.263 L 533.958 229.4 L 536.708 230.963 C 566.08 247.616 584.261 278.747 584.333 312.512 C 584.333 364.212 542.283 406.262 490.583 406.262 L 172.295 406.262 L 172.295 406.25 Z " fill="rgb(139,92,246)"/><path d=" M 340.583 100 C 372.152 100.058 401.251 117.084 416.77 144.575 L 420.908 151.9 L 429.258 150.825 C 433.62 150.263 437.208 150 440.583 150 C 484.829 150.012 522.095 183.07 527.383 227 L 528.133 233.275 L 533.633 236.388 C 561.049 251.929 578.018 280.986 578.083 312.5 C 578.083 360.75 538.833 400 490.583 400 L 174.045 400 L 170.058 399.9 C 132.722 399.169 102.891 368.593 103.083 331.25 C 103.014 303.147 120.13 277.857 146.245 267.475 L 155.42 263.787 L 153.958 254.012 C 153.403 250.619 153.11 247.188 153.083 243.75 C 153.083 205.838 183.92 175 221.833 175 C 227.72 175 233.783 175.838 239.845 177.475 L 252.433 180.888 L 255.308 168.163 C 264.146 128.202 299.657 99.817 340.583 100 M 340.583 87.5 C 292.958 87.5 253.183 120.825 243.108 165.413 C 236.176 163.505 229.022 162.525 221.833 162.5 C 176.96 162.5 140.583 198.877 140.583 243.75 C 140.583 247.888 140.995 251.912 141.583 255.875 C 110.786 268.229 90.597 298.068 90.583 331.25 C 90.596 375.292 125.717 411.295 169.745 412.4 L 169.745 412.5 L 490.583 412.5 C 545.811 412.5 590.583 367.728 590.583 312.5 C 590.583 276.466 571.175 243.225 539.795 225.513 C 533.858 175.95 491.745 137.5 440.583 137.5 C 436.195 137.5 431.895 137.875 427.658 138.425 C 409.96 106.97 376.675 87.504 340.583 87.5 Z " fill="rgb(109,40,217)"/></g><path d=" M 1599.936 140.548 L 1530.246 140.548 L 1530.246 352.648 L 1599.936 352.648 L 1599.936 140.548 Z  M 1742.649 140.548 L 1665.081 140.548 L 1580.847 242.053 L 1666.596 352.648 L 1747.194 352.648 L 1659.93 239.932 L 1742.649 140.548 Z  M 1740.284 164.182 L 1740.284 164.182 L 1740.284 164.182 Q 1740.284 177.514 1749.829 185.695 L 1749.829 185.695 L 1749.829 185.695 Q 1759.373 193.876 1773.008 193.876 L 1773.008 193.876 L 1773.008 193.876 Q 1786.643 193.876 1796.188 185.695 L 1796.188 185.695 L 1796.188 185.695 Q 1805.732 177.514 1805.732 164.182 L 1805.732 164.182 L 1805.732 164.182 Q 1805.732 150.85 1796.188 142.669 L 1796.188 142.669 L 1796.188 142.669 Q 1786.643 134.488 1773.008 134.488 L 1773.008 134.488 L 1773.008 134.488 Q 1759.373 134.488 1749.829 142.669 L 1749.829 142.669 L 1749.829 142.669 Q 1740.284 150.85 1740.284 164.182 Z  M 1801.187 213.268 L 1744.526 213.268 L 1744.526 352.648 L 1801.187 352.648 L 1801.187 213.268 Z  M 1909.417 213.268 L 1801.852 213.268 L 1801.852 260.233 L 1909.417 260.233 L 1909.417 213.268 Z  M 1883.662 164.788 L 1827.607 164.788 L 1827.607 352.648 L 1883.662 352.648 L 1883.662 164.788 Z  M 648.516 225.691 L 648.516 243.265 L 685.179 243.265 L 685.179 243.265 Q 705.48 243.265 720.63 237.508 L 720.63 237.508 L 720.63 237.508 Q 735.78 231.751 744.416 220.691 L 744.416 220.691 L 744.416 220.691 Q 753.051 209.632 753.051 193.876 L 753.051 193.876 L 753.051 193.876 Q 753.051 180.241 748.203 170.242 L 748.203 170.242 L 748.203 170.242 Q 743.355 160.243 734.265 153.728 L 734.265 153.728 L 734.265 153.728 Q 725.175 147.214 712.752 143.881 L 712.752 143.881 L 712.752 143.881 Q 700.329 140.548 685.179 140.548 L 685.179 140.548 L 621.246 140.548 L 621.246 352.648 L 688.815 352.648 L 688.815 352.648 Q 711.237 352.648 728.357 346.133 L 728.357 346.133 L 728.357 346.133 Q 745.476 339.619 755.324 325.984 L 755.324 325.984 L 755.324 325.984 Q 765.171 312.349 765.171 291.442 L 765.171 291.442 L 765.171 291.442 Q 765.171 276.292 759.111 265.384 L 759.111 265.384 L 759.111 265.384 Q 753.051 254.476 742.446 247.507 L 742.446 247.507 L 742.446 247.507 Q 731.841 240.538 718.055 237.205 L 718.055 237.205 L 718.055 237.205 Q 704.268 233.872 688.815 233.872 L 688.815 233.872 L 648.516 233.872 L 648.516 253.567 L 686.694 253.567 L 686.694 253.567 Q 695.784 253.567 703.359 255.688 L 703.359 255.688 L 703.359 255.688 Q 710.934 257.809 716.691 262.051 L 716.691 262.051 L 716.691 262.051 Q 722.448 266.293 725.478 272.656 L 725.478 272.656 L 725.478 272.656 Q 728.508 279.019 728.508 287.806 L 728.508 287.806 L 728.508 287.806 Q 728.508 299.623 723.054 307.501 L 723.054 307.501 L 723.054 307.501 Q 717.6 315.379 708.207 319.318 L 708.207 319.318 L 708.207 319.318 Q 698.814 323.257 686.694 323.257 L 686.694 323.257 L 657 323.257 L 657 169.939 L 682.755 169.939 L 682.755 169.939 Q 697.602 169.939 706.995 177.211 L 706.995 177.211 L 706.995 177.211 Q 716.388 184.483 716.388 197.815 L 716.388 197.815 L 716.388 197.815 Q 716.388 206.602 712.146 212.813 L 712.146 212.813 L 712.146 212.813 Q 707.904 219.025 700.329 222.358 L 700.329 222.358 L 700.329 222.358 Q 692.754 225.691 682.755 225.691 L 682.755 225.691 L 648.516 225.691 Z  M 832.74 352.648 L 832.74 213.268 L 800.319 213.268 L 800.319 352.648 L 832.74 352.648 Z  M 874.251 248.416 L 874.251 248.416 L 890.31 220.54 L 890.31 220.54 Q 885.462 215.086 878.796 212.662 L 878.796 212.662 L 878.796 212.662 Q 872.13 210.238 864.555 210.238 L 864.555 210.238 L 864.555 210.238 Q 853.95 210.238 844.103 217.813 L 844.103 217.813 L 844.103 217.813 Q 834.255 225.388 828.044 238.265 L 828.044 238.265 L 828.044 238.265 Q 821.832 251.143 821.832 267.808 L 821.832 267.808 L 832.74 274.171 L 832.74 274.171 Q 832.74 264.172 835.164 256.597 L 835.164 256.597 L 835.164 256.597 Q 837.588 249.022 842.588 244.931 L 842.588 244.931 L 842.588 244.931 Q 847.587 240.841 855.768 240.841 L 855.768 240.841 L 855.768 240.841 Q 861.828 240.841 865.767 242.81 L 865.767 242.81 L 865.767 242.81 Q 869.706 244.78 874.251 248.416 Z  M 968.484 355.678 L 968.484 355.678 L 968.484 355.678 Q 992.724 355.678 1010.147 346.133 L 1010.147 346.133 L 1010.147 346.133 Q 1027.569 336.589 1038.477 317.803 L 1038.477 317.803 L 1009.995 306.592 L 1009.995 306.592 Q 1003.329 317.803 993.33 323.257 L 993.33 323.257 L 993.33 323.257 Q 983.331 328.711 969.999 328.711 L 969.999 328.711 L 969.999 328.711 Q 957.273 328.711 948.486 323.105 L 948.486 323.105 L 948.486 323.105 Q 939.699 317.5 935.154 307.046 L 935.154 307.046 L 935.154 307.046 Q 930.609 296.593 930.609 281.746 L 930.609 281.746 L 930.609 281.746 Q 930.609 270.232 933.336 261.596 L 933.336 261.596 L 933.336 261.596 Q 936.063 252.961 941.063 247.052 L 941.063 247.052 L 941.063 247.052 Q 946.062 241.144 953.183 238.114 L 953.183 238.114 L 953.183 238.114 Q 960.303 235.084 969.696 235.084 L 969.696 235.084 L 969.696 235.084 Q 979.998 235.084 987.725 239.629 L 987.725 239.629 L 987.725 239.629 Q 995.451 244.174 999.845 252.355 L 999.845 252.355 L 999.845 252.355 Q 1004.238 260.536 1004.238 271.747 L 1004.238 271.747 L 1004.238 271.747 Q 1004.238 273.868 1003.178 276.898 L 1003.178 276.898 L 1003.178 276.898 Q 1002.117 279.928 1000.905 281.746 L 1000.905 281.746 L 1011.207 267.808 L 916.671 267.808 L 916.671 290.533 L 1039.386 290.533 L 1039.386 290.533 Q 1039.386 289.321 1039.538 286.745 L 1039.538 286.745 L 1039.538 286.745 Q 1039.689 284.17 1039.689 281.443 L 1039.689 281.443 L 1039.689 281.443 Q 1039.689 259.021 1031.357 243.113 L 1031.357 243.113 L 1031.357 243.113 Q 1023.024 227.206 1007.571 218.722 L 1007.571 218.722 L 1007.571 218.722 Q 992.118 210.238 969.999 210.238 L 969.999 210.238 L 969.999 210.238 Q 953.334 210.238 940.002 215.389 L 940.002 215.389 L 940.002 215.389 Q 926.67 220.54 917.126 230.084 L 917.126 230.084 L 917.126 230.084 Q 907.581 239.629 902.43 253.112 L 902.43 253.112 L 902.43 253.112 Q 897.279 266.596 897.279 282.958 L 897.279 282.958 L 897.279 282.958 Q 897.279 304.774 906.066 321.136 L 906.066 321.136 L 906.066 321.136 Q 914.853 337.498 930.912 346.588 L 930.912 346.588 L 930.912 346.588 Q 946.971 355.678 968.484 355.678 Z  M 1131.498 355.678 L 1131.498 355.678 L 1131.498 355.678 Q 1155.738 355.678 1173.161 346.133 L 1173.161 346.133 L 1173.161 346.133 Q 1190.583 336.589 1201.491 317.803 L 1201.491 317.803 L 1173.009 306.592 L 1173.009 306.592 Q 1166.343 317.803 1156.344 323.257 L 1156.344 323.257 L 1156.344 323.257 Q 1146.345 328.711 1133.013 328.711 L 1133.013 328.711 L 1133.013 328.711 Q 1120.287 328.711 1111.5 323.105 L 1111.5 323.105 L 1111.5 323.105 Q 1102.713 317.5 1098.168 307.046 L 1098.168 307.046 L 1098.168 307.046 Q 1093.623 296.593 1093.623 281.746 L 1093.623 281.746 L 1093.623 281.746 Q 1093.623 270.232 1096.35 261.596 L 1096.35 261.596 L 1096.35 261.596 Q 1099.077 252.961 1104.077 247.052 L 1104.077 247.052 L 1104.077 247.052 Q 1109.076 241.144 1116.197 238.114 L 1116.197 238.114 L 1116.197 238.114 Q 1123.317 235.084 1132.71 235.084 L 1132.71 235.084 L 1132.71 235.084 Q 1143.012 235.084 1150.739 239.629 L 1150.739 239.629 L 1150.739 239.629 Q 1158.465 244.174 1162.859 252.355 L 1162.859 252.355 L 1162.859 252.355 Q 1167.252 260.536 1167.252 271.747 L 1167.252 271.747 L 1167.252 271.747 Q 1167.252 273.868 1166.192 276.898 L 1166.192 276.898 L 1166.192 276.898 Q 1165.131 279.928 1163.919 281.746 L 1163.919 281.746 L 1174.221 267.808 L 1079.685 267.808 L 1079.685 290.533 L 1202.4 290.533 L 1202.4 290.533 Q 1202.4 289.321 1202.552 286.745 L 1202.552 286.745 L 1202.552 286.745 Q 1202.703 284.17 1202.703 281.443 L 1202.703 281.443 L 1202.703 281.443 Q 1202.703 259.021 1194.371 243.113 L 1194.371 243.113 L 1194.371 243.113 Q 1186.038 227.206 1170.585 218.722 L 1170.585 218.722 L 1170.585 218.722 Q 1155.132 210.238 1133.013 210.238 L 1133.013 210.238 L 1133.013 210.238 Q 1116.348 210.238 1103.016 215.389 L 1103.016 215.389 L 1103.016 215.389 Q 1089.684 220.54 1080.14 230.084 L 1080.14 230.084 L 1080.14 230.084 Q 1070.595 239.629 1065.444 253.112 L 1065.444 253.112 L 1065.444 253.112 Q 1060.293 266.596 1060.293 282.958 L 1060.293 282.958 L 1060.293 282.958 Q 1060.293 304.774 1069.08 321.136 L 1069.08 321.136 L 1069.08 321.136 Q 1077.867 337.498 1093.926 346.588 L 1093.926 346.588 L 1093.926 346.588 Q 1109.985 355.678 1131.498 355.678 Z  M 1223.61 243.568 L 1293.906 243.568 L 1213.005 352.648 L 1343.295 352.648 L 1343.295 322.348 L 1271.181 322.348 L 1350.87 213.268 L 1223.61 213.268 L 1223.61 243.568 Z  M 1432.074 355.678 L 1432.074 355.678 L 1432.074 355.678 Q 1456.314 355.678 1473.737 346.133 L 1473.737 346.133 L 1473.737 346.133 Q 1491.159 336.589 1502.067 317.803 L 1502.067 317.803 L 1473.585 306.592 L 1473.585 306.592 Q 1466.919 317.803 1456.92 323.257 L 1456.92 323.257 L 1456.92 323.257 Q 1446.921 328.711 1433.589 328.711 L 1433.589 328.711 L 1433.589 328.711 Q 1420.863 328.711 1412.076 323.105 L 1412.076 323.105 L 1412.076 323.105 Q 1403.289 317.5 1398.744 307.046 L 1398.744 307.046 L 1398.744 307.046 Q 1394.199 296.593 1394.199 281.746 L 1394.199 281.746 L 1394.199 281.746 Q 1394.199 270.232 1396.926 261.596 L 1396.926 261.596 L 1396.926 261.596 Q 1399.653 252.961 1404.653 247.052 L 1404.653 247.052 L 1404.653 247.052 Q 1409.652 241.144 1416.773 238.114 L 1416.773 238.114 L 1416.773 238.114 Q 1423.893 235.084 1433.286 235.084 L 1433.286 235.084 L 1433.286 235.084 Q 1443.588 235.084 1451.315 239.629 L 1451.315 239.629 L 1451.315 239.629 Q 1459.041 244.174 1463.435 252.355 L 1463.435 252.355 L 1463.435 252.355 Q 1467.828 260.536 1467.828 271.747 L 1467.828 271.747 L 1467.828 271.747 Q 1467.828 273.868 1466.768 276.898 L 1466.768 276.898 L 1466.768 276.898 Q 1465.707 279.928 1464.495 281.746 L 1464.495 281.746 L 1474.797 267.808 L 1380.261 267.808 L 1380.261 290.533 L 1502.976 290.533 L 1502.976 290.533 Q 1502.976 289.321 1503.128 286.745 L 1503.128 286.745 L 1503.128 286.745 Q 1503.279 284.17 1503.279 281.443 L 1503.279 281.443 L 1503.279 281.443 Q 1503.279 259.021 1494.947 243.113 L 1494.947 243.113 L 1494.947 243.113 Q 1486.614 227.206 1471.161 218.722 L 1471.161 218.722 L 1471.161 218.722 Q 1455.708 210.238 1433.589 210.238 L 1433.589 210.238 L 1433.589 210.238 Q 1416.924 210.238 1403.592 215.389 L 1403.592 215.389 L 1403.592 215.389 Q 1390.26 220.54 1380.716 230.084 L 1380.716 230.084 L 1380.716 230.084 Q 1371.171 239.629 1366.02 253.112 L 1366.02 253.112 L 1366.02 253.112 Q 1360.869 266.596 1360.869 282.958 L 1360.869 282.958 L 1360.869 282.958 Q 1360.869 304.774 1369.656 321.136 L 1369.656 321.136 L 1369.656 321.136 Q 1378.443 337.498 1394.502 346.588 L 1394.502 346.588 L 1394.502 346.588 Q 1410.561 355.678 1432.074 355.678 Z " fill="rgb(255,255,255)"/></g></g></svg>