<?xml version="1.0" encoding="UTF-8" standalone="no"?><!-- Generator: Gravit.io --><svg xmlns="http://www.w3.org/2000/svg" xmlns:xlink="http://www.w3.org/1999/xlink" style="isolation:isolate" viewBox="0 0 500 500" width="500pt" height="500pt"><defs><clipPath id="_clipPath_817WGsJak6USNqe33XG68GJEfbK3uLU8"><rect width="500" height="500"/></clipPath></defs><g clip-path="url(#_clipPath_817WGsJak6USNqe33XG68GJEfbK3uLU8)"><rect width="500" height="500" style="fill:rgb(0,0,0)" fill-opacity="0"/><g><path d=" M 81.712 406.25 L 79.325 406.15 C 38.587 405.358 6.037 371.995 6.25 331.25 C 6.175 300.591 24.847 273.001 53.337 261.675 L 57.925 259.837 L 57.175 254.95 C 56.582 251.246 56.273 247.501 56.25 243.75 C 56.25 202.388 89.887 168.75 131.25 168.75 C 137.712 168.75 144.312 169.65 150.887 171.438 L 157.187 173.15 L 158.612 166.788 C 168.099 123.974 206.148 93.564 250 93.75 C 283.725 93.75 315 112.05 331.625 141.5 L 333.7 145.163 L 337.875 144.625 C 341.85 144.1 345.875 143.75 350 143.75 C 397.413 143.764 437.346 179.189 443.012 226.263 L 443.375 229.4 L 446.125 230.963 C 475.498 247.616 493.678 278.747 493.75 312.512 C 493.75 364.212 451.7 406.262 400 406.262 L 81.712 406.262 L 81.712 406.25 Z " fill="rgb(139,92,246)"/><path d=" M 250 100 C 281.569 100.058 310.669 117.084 326.187 144.575 L 330.325 151.9 L 338.675 150.825 C 343.037 150.263 346.625 150 350 150 C 394.247 150.012 431.513 183.07 436.8 227 L 437.55 233.275 L 443.05 236.388 C 470.466 251.929 487.435 280.986 487.5 312.5 C 487.5 360.75 448.25 400 400 400 L 83.462 400 L 79.475 399.9 C 42.139 399.169 12.308 368.593 12.5 331.25 C 12.431 303.147 29.547 277.857 55.662 267.475 L 64.837 263.787 L 63.375 254.012 C 62.82 250.619 62.527 247.188 62.5 243.75 C 62.5 205.838 93.337 175 131.25 175 C 137.137 175 143.2 175.838 149.262 177.475 L 161.85 180.888 L 164.725 168.163 C 173.563 128.202 209.074 99.817 250 100 M 250 87.5 C 202.375 87.5 162.6 120.825 152.525 165.413 C 145.593 163.505 138.439 162.525 131.25 162.5 C 86.377 162.5 50 198.877 50 243.75 C 50 247.888 50.412 251.912 51 255.875 C 20.204 268.229 0.014 298.068 0 331.25 C 0.013 375.292 35.134 411.295 79.162 412.4 L 79.162 412.5 L 400 412.5 C 455.228 412.5 500 367.728 500 312.5 C 500 276.466 480.593 243.225 449.212 225.513 C 443.275 175.95 401.162 137.5 350 137.5 C 345.612 137.5 341.312 137.875 337.075 138.425 C 319.377 106.97 286.092 87.504 250 87.5 Z " fill="rgb(109,40,217)"/></g></g></svg>